PathFileType	4	(X/Y/Z)	C:/Users/opensim2020/Desktop/walking_exp_matlab/subject02_walking12_straight_03.trc																																																																																																																												
DataRate	CameraRate	NumFrames	NumMarkers	Units	OrigDataRate	OrigDataStartFrame	OrigNumFrames																																																																																																																								
100	100	6	42	mm	100	1573	127																																																																																																																								
Frame#	Time	LFHD			RFHD			LBHD			RBHD			C7			T10			CLAV			STRN			RBAK			LSHO			LUPA			LELB			LFRM			LWRA			LWRB			LFIN			RSHO			RUPA			RELB			RFRM			RWRA			RWRB			RFIN			LASI			RASI			LPSI			RPSI			LTHI			LKNE			LTIB			LANK			LHEE			LTOE			RTHI			RKNE			RTIB			RANK			RHEE			RTOE			*39			*40			*41		
		X1	Y1	Z1	X2	Y2	Z2	X3	Y3	Z3	X4	Y4	Z4	X5	Y5	Z5	X6	Y6	Z6	X7	Y7	Z7	X8	Y8	Z8	X9	Y9	Z9	X10	Y10	Z10	X11	Y11	Z11	X12	Y12	Z12	X13	Y13	Z13	X14	Y14	Z14	X15	Y15	Z15	X16	Y16	Z16	X17	Y17	Z17	X18	Y18	Z18	X19	Y19	Z19	X20	Y20	Z20	X21	Y21	Z21	X22	Y22	Z22	X23	Y23	Z23	X24	Y24	Z24	X25	Y25	Z25	X26	Y26	Z26	X27	Y27	Z27	X28	Y28	Z28	X29	Y29	Z29	X30	Y30	Z30	X31	Y31	Z31	X32	Y32	Z32	X33	Y33	Z33	X34	Y34	Z34	X35	Y35	Z35	X36	Y36	Z36	X37	Y37	Z37	X38	Y38	Z38	X39	Y39	Z39	X40	Y40	Z40	X41	Y41	Z41	X42	Y42	Z42
																																																																																																																															
48	0.47	17.18879	1726.05359	-1057.24377	-22.27072	1696.54163	-920.26544	-105.34026	1653.67676	-1107.49109	-156.32939	1622.78003	-976.90161	-178.05692	1507.89575	-1049.04968	-235.09435	1233.43005	-1051.90381	-39.16623	1438.23218	-1047.35352	9.68796	1265.08716	-1045.28552	-246.99916	1331.88989	-1000.297	-89.59079	1494.82227	-1216.14648	-39.42945	1325.61743	-1332.13904	24.1908	1205.1377	-1376.3822	121.27018	1113.78674	-1396.80505	244.88222	1060.01123	-1367.70508	211.28165	1030.73572	-1402.44763	270.36926	1004.8653	-1412.85876	-124.04264	1462.21887	-857.35999	-192.03392	1279.86865	-786.06543	-203.83385	1136.33789	-765.35901	-205.80132	1018.82562	-736.41608	-184.57614	883.42889	-740.82837	-236.21629	892.98468	-718.34265	-216.96281	823.43884	-707.28912	-16.5082	969.09515	-1189.81604	-5.95529	958.71851	-932.63849	-222.38872	1016.2149	-1098.0929	-224.00798	1012.06848	-984.77716	-134.75598	666.04529	-1236.90491	-207.84543	473.67593	-1208.49622	-301.56625	302.0592	-1213.63672	-340.50018	79.12431	-1182.21167	-382.10733	54.64531	-1133.2417	-187.01596	32.16986	-1191.30908	-14.92022	661.17377	-853.7359	62.18548	469.84683	-891.3775	97.992	287.57516	-878.80969	165.00146	103.45554	-904.4361	163.56856	40.89692	-964.11206	323.10419	105.25951	-873.63287	-106.36045	1785.04517	-993.77374	2845.97485	1034.41052	-3357.19824	NaN	NaN	NaN
49	0.48	29.81583	1724.09827	-1055.06396	-10.40981	1693.80811	-918.30322	-92.6843	1651.84082	-1105.68274	-144.06776	1620.54944	-974.97906	-165.85818	1505.93652	-1047.35339	-222.76642	1231.47388	-1050.06873	-26.89477	1436.26196	-1045.72864	21.88704	1263.16113	-1044.00037	-233.60475	1329.24048	-999.04224	-77.36847	1493.20776	-1214.26831	-25.86456	1325.22876	-1330.66772	38.83955	1205.36804	-1375.03149	138.1826	1116.20081	-1394.93787	262.89758	1065.72339	-1364.7688	230.19102	1035.30713	-1399.57898	290.11548	1011.3678	-1409.61353	-111.75217	1459.849	-855.76685	-180.86627	1278.27356	-784.83295	-194.54163	1134.96033	-764.16876	-198.34554	1017.42023	-735.28979	-177.76039	882.03198	-739.17017	-229.64523	891.99103	-717.1925	-211.371	822.28888	-705.74329	-4.92924	967.47101	-1188.92517	7.3776	956.7287	-932.10675	-210.32321	1014.12964	-1095.83264	-210.8322	1010.00391	-982.33075	-126.61779	665.28009	-1236.50745	-200.99251	473.5643	-1207.8916	-297.51779	303.53003	-1212.79431	-339.69678	81.10476	-1182.08545	-381.46799	57.02706	-1133.04333	-186.83305	32.19633	-1191.55542	-6.40823	657.90808	-852.73413	75.35062	467.87564	-891.33746	116.99065	287.61108	-877.90472	190.02681	105.45834	-902.26904	189.96777	42.19962	-961.34015	349.17737	112.20516	-874.05865	-93.91598	1783.12122	-991.53748	2845.15381	1034.25208	-3360.34839	NaN	NaN	NaN
50	0.49	42.30826	1722.17456	-1052.59692	2.18938	1691.88562	-916.03589	-80.18641	1650.2439	-1104.24475	-131.73352	1618.84155	-973.37848	-153.50858	1504.00781	-1045.63782	-210.30699	1229.54773	-1048.09473	-14.58138	1434.4137	-1043.95801	34.24527	1261.3678	-1042.61841	-221.72794	1327.36938	-997.43903	-65.22827	1491.7312	-1212.48767	-12.52966	1324.71313	-1328.97278	53.1657	1205.44617	-1373.64539	154.55579	1118.25439	-1392.38184	280.18408	1070.9928	-1361.62	248.3923	1039.51843	-1396.35352	308.89386	1017.27509	-1406.57629	-99.39812	1457.9032	-853.91815	-169.85239	1276.8407	-783.51978	-185.23289	1133.53003	-763.07159	-189.85257	1016.28668	-733.94537	-169.96954	880.6344	-737.52448	-222.52345	890.89661	-716.11157	-205.02895	821.19	-704.25488	6.82967	965.82111	-1188.04541	20.80446	954.84869	-931.76233	-198.13368	1012.09601	-1093.30396	-197.60341	1008.08472	-979.72955	-118.21601	664.60889	-1236.35681	-193.38118	473.42886	-1207.39771	-292.90875	305.10284	-1212.15662	-338.74933	83.17539	-1182.14807	-380.72507	59.42949	-1132.92944	-186.80859	31.82903	-1191.66504	3.41267	655.23053	-851.76697	90.39664	467.24356	-890.4187	134.69203	287.41968	-876.75201	211.3373	106.29005	-901.40845	211.22507	42.51796	-959.76508	370.84296	116.3703	-875.56165	-81.45111	1781.16248	-989.38336	2845.8855	1034.39355	-3357.35327	NaN	NaN	NaN
51	0.5	54.87571	1720.349	-1050.09302	14.22974	1690.08386	-913.48926	-67.32912	1648.30054	-1101.50098	-119.74326	1617.10693	-971.57281	-141.24132	1502.21753	-1043.54199	-197.69389	1227.59851	-1046.06506	-2.23456	1432.64465	-1042.05884	45.91013	1259.56995	-1041.08545	-209.06187	1325.36035	-995.43811	-53.1722	1490.18433	-1210.69873	0.37739	1324.06897	-1327.10413	67.00202	1205.32373	-1371.7373	170.26299	1120.04053	-1390.1272	296.75656	1075.9657	-1358.55908	265.99173	1043.4823	-1392.93005	326.91837	1022.55133	-1402.63892	-87.19085	1455.62708	-852.07837	-158.56479	1274.97095	-782.20953	-174.92819	1131.91663	-761.71539	-181.2639	1014.85938	-732.59564	-162.17462	879.21027	-735.54419	-214.88165	889.7403	-714.99878	-197.85063	820.02985	-702.62714	18.64174	964.15613	-1187.18347	34.26264	953.02759	-931.34503	-185.72972	1010.20856	-1090.83752	-184.03123	1006.27686	-977.15594	-109.07683	663.94049	-1235.46094	-184.93527	473.11832	-1207.00452	-287.63959	306.75464	-1211.84998	-337.64484	85.47341	-1182.53601	-380.13528	62.88361	-1133.45215	-186.73734	31.7321	-1191.88525	15.63092	653.65521	-850.58051	106.93274	467.20883	-889.39288	151.55629	287.23828	-875.29022	227.95399	105.98635	-900.81519	227.80373	41.88081	-958.60663	388.08749	116.65565	-878.04645	-69.02555	1779.33984	-987.14215	2845.24634	1034.27783	-3360.30518	NaN	NaN	NaN
52	0.51	67.56772	1718.7854	-1047.65955	26.65944	1688.21826	-910.85046	-54.60621	1646.67603	-1099.20984	-107.71443	1615.20508	-969.47253	-128.88904	1500.49573	-1041.32544	-185.08359	1225.83167	-1043.83093	10.19629	1431.00122	-1039.94019	58.57956	1258.06396	-1039.32874	-196.49828	1323.6759	-993.4082	-41.04866	1488.57056	-1208.25708	12.96565	1323.20447	-1324.99951	80.57697	1204.89404	-1370.03491	185.46329	1121.47852	-1387.11841	312.52243	1080.17432	-1354.77148	282.75378	1047.06763	-1389.40002	344.1337	1027.39746	-1398.88062	-74.55041	1453.77039	-849.86108	-147.31093	1273.4093	-780.63965	-164.57425	1130.40796	-760.32385	-171.61855	1013.44873	-731.22272	-154.11234	877.6803	-733.91034	-206.61433	888.56622	-713.89581	-189.93884	818.67352	-701.3808	30.55647	962.49078	-1186.2677	47.91067	951.34106	-930.8454	-173.11519	1008.5105	-1088.25732	-170.93332	1004.76465	-974.328	-99.31596	663.258	-1234.91797	-175.77565	472.7485	-1206.65845	-281.66049	308.47354	-1211.7793	-336.276	88.1772	-1183.19373	-379.31796	66.71561	-1134.31628	-186.795	31.60755	-1192.22388	32.21916	653.47961	-849.29376	124.72889	467.50677	-888.20575	167.50169	286.80191	-874.16455	240.91541	104.78992	-900.63422	239.0388	40.25743	-958.15802	401.32642	113.56482	-880.66534	-56.65637	1777.64294	-985.04803	2845.8313	1034.33411	-3357.29614	NaN	NaN	NaN
53	0.52	80.22196	1717.09143	-1044.85413	38.61022	1686.93323	-908.67053	-41.84284	1645.14526	-1096.79016	-95.09034	1613.84668	-967.19556	-116.46289	1498.91711	-1038.92505	-172.33994	1224.22546	-1041.4884	22.7236	1429.55273	-1037.71362	71.40956	1256.78027	-1037.38904	-183.52983	1321.75146	-991.14111	-28.97322	1487.16895	-1205.97314	25.24317	1322.25342	-1322.68286	93.61877	1204.2804	-1367.95166	199.99246	1122.6261	-1384.47083	327.6983	1084.07202	-1351.07117	298.74988	1050.14417	-1385.6405	360.54672	1031.677	-1394.72144	-62.78431	1451.75977	-847.71155	-136.08411	1271.52563	-778.95142	-153.86397	1128.85242	-758.9317	-162.16415	1012.02405	-729.85199	-145.70869	875.95691	-732.3316	-197.7626	887.38019	-712.77728	-181.78554	817.45868	-700.09985	42.67993	960.8244	-1185.32813	61.94677	949.9566	-929.94086	-160.10495	1006.9729	-1085.65869	-157.40526	1003.49921	-971.57062	-88.70966	662.44342	-1234.02454	-166.039	472.38907	-1206.31738	-275.12378	310.38644	-1211.82886	-334.73203	91.18781	-1184.25232	-378.20932	70.87413	-1135.15356	-186.77803	31.51362	-1192.93677	51.66779	653.9046	-847.03711	143.18674	468.08859	-887.44061	182.35974	286.19452	-873.38446	250.74719	102.69077	-900.67212	246.32411	38.29724	-957.97278	411.13742	108.25315	-882.78284	-43.97927	1776.16748	-982.60339	2845.15088	1034.33435	-3360.25757	NaN	NaN	NaN
